<svg width="44" height="44" viewBox="0 0 44 44" fill="none" xmlns="http://www.w3.org/2000/svg">
<g id="Icon / chat">
<path id="Vector" d="M3.66467 29.515V5.59004C3.66467 5.16226 3.86328 4.73448 4.26051 4.30671C4.65773 3.87893 5.07023 3.66504 5.49801 3.66504H29.2855C29.7438 3.66504 30.1716 3.87129 30.5688 4.28379C30.9661 4.69629 31.1647 5.13171 31.1647 5.59004V21.9067C31.1647 22.3345 30.9661 22.7623 30.5688 23.19C30.1716 23.6178 29.7438 23.8317 29.2855 23.8317H10.998L4.85634 29.9734C4.6119 30.2178 4.35217 30.2789 4.07717 30.1567C3.80217 30.0345 3.66467 29.8206 3.66467 29.515ZM12.8772 32.9984C12.4494 32.9984 12.0293 32.7845 11.6168 32.3567C11.2043 31.9289 10.998 31.5012 10.998 31.0734V26.5817H33.9147V10.9984H38.498C38.9258 10.9984 39.3383 11.2123 39.7355 11.64C40.1327 12.0678 40.3313 12.5109 40.3313 12.9692V38.6359C40.3313 38.9414 40.1938 39.1553 39.9188 39.2775C39.6438 39.3998 39.3841 39.3387 39.1397 39.0942L33.0438 32.9984H12.8772Z" fill="white"/>
</g>
</svg>
