<svg width="13" height="12" viewBox="0 0 13 12" fill="none" xmlns="http://www.w3.org/2000/svg">
<g id="Icon / info" clip-path="url(#clip0_2643_151)">
<path id="Vector" d="M6.47718 8.61211H7.46406V5.49961H6.47718V8.61211ZM6.93939 4.78711C7.11428 4.78711 7.25586 4.73294 7.36412 4.62461C7.47239 4.51628 7.52652 4.37878 7.52652 4.21211C7.52652 4.02044 7.47239 3.87253 7.36412 3.76836C7.25586 3.66419 7.11428 3.61211 6.93939 3.61211C6.75617 3.61211 6.61251 3.66419 6.50841 3.76836C6.40431 3.87253 6.35226 4.01628 6.35226 4.19961C6.35226 4.37461 6.40639 4.51628 6.51465 4.62461C6.62292 4.73294 6.7645 4.78711 6.93939 4.78711ZM6.93939 11.2621C6.21484 11.2621 5.53194 11.1267 4.89067 10.8559C4.2494 10.585 3.68934 10.21 3.21047 9.73086C2.7316 9.25169 2.35684 8.69128 2.08617 8.04961C1.81551 7.40794 1.68018 6.72461 1.68018 5.99961C1.68018 5.26628 1.81551 4.58086 2.08617 3.94336C2.35684 3.30586 2.7316 2.74753 3.21047 2.26836C3.68934 1.78919 4.2494 1.41211 4.89067 1.13711C5.53194 0.862109 6.21484 0.724609 6.93939 0.724609C7.66394 0.724609 8.34892 0.862109 8.99435 1.13711C9.63978 1.41211 10.1999 1.78919 10.6746 2.26836C11.1493 2.74753 11.524 3.30794 11.7989 3.94961C12.0737 4.59128 12.2111 5.27461 12.2111 5.99961C12.2111 6.73294 12.0737 7.41836 11.7989 8.05586C11.524 8.69336 11.1472 9.24961 10.6683 9.72461C10.1894 10.1996 9.62938 10.5746 8.98811 10.8496C8.34684 11.1246 7.66394 11.2621 6.93939 11.2621Z" fill="#02254A"/>
</g>
<defs>
<clipPath id="clip0_2643_151">
<rect width="11.9925" height="12" fill="white" transform="translate(0.943359)"/>
</clipPath>
</defs>
</svg>
