<svg width="24" height="24" viewBox="0 0 24 24" fill="none" xmlns="http://www.w3.org/2000/svg">
<g id="Icon / social / Instagram">
<g id="instagram">
<path d="M12.5 6.35542C14.488 6.35542 14.759 6.35542 15.5723 6.35542C16.2952 6.35542 16.6566 6.53614 16.9277 6.62651C17.2892 6.80723 17.5602 6.89759 17.8313 7.16868C18.1024 7.43976 18.2831 7.71084 18.3735 8.07229C18.4639 8.34337 18.5542 8.70482 18.6446 9.42771C18.6446 10.241 18.6446 10.4217 18.6446 12.5C18.6446 14.5783 18.6446 14.759 18.6446 15.5723C18.6446 16.2952 18.4639 16.6566 18.3735 16.9277C18.1928 17.2892 18.1024 17.5602 17.8313 17.8313C17.5602 18.1024 17.2892 18.2831 16.9277 18.3735C16.6566 18.4639 16.2952 18.5542 15.5723 18.6446C14.759 18.6446 14.5783 18.6446 12.5 18.6446C10.4217 18.6446 10.241 18.6446 9.42771 18.6446C8.70482 18.6446 8.34337 18.4639 8.07229 18.3735C7.71084 18.1928 7.43976 18.1024 7.16868 17.8313C6.89759 17.5602 6.71687 17.2892 6.62651 16.9277C6.53614 16.6566 6.44578 16.2952 6.35542 15.5723C6.35542 14.759 6.35542 14.5783 6.35542 12.5C6.35542 10.4217 6.35542 10.241 6.35542 9.42771C6.35542 8.70482 6.53614 8.34337 6.62651 8.07229C6.80723 7.71084 6.89759 7.43976 7.16868 7.16868C7.43976 6.89759 7.71084 6.71687 8.07229 6.62651C8.34337 6.53614 8.70482 6.44578 9.42771 6.35542C10.241 6.35542 10.512 6.35542 12.5 6.35542ZM12.5 5C10.4217 5 10.241 5 9.42771 5C8.61446 5 8.07229 5.18072 7.62048 5.36145C7.16868 5.54217 6.71687 5.81325 6.26506 6.26506C5.81325 6.71687 5.63253 7.07831 5.36145 7.62048C5.18072 8.07229 5.09036 8.61446 5 9.42771C5 10.241 5 10.512 5 12.5C5 14.5783 5 14.759 5 15.5723C5 16.3855 5.18072 16.9277 5.36145 17.3795C5.54217 17.8313 5.81325 18.2831 6.26506 18.7349C6.71687 19.1867 7.07831 19.3675 7.62048 19.6386C8.07229 19.8193 8.61446 19.9096 9.42771 20C10.241 20 10.512 20 12.5 20C14.488 20 14.759 20 15.5723 20C16.3855 20 16.9277 19.8193 17.3795 19.6386C17.8313 19.4578 18.2831 19.1867 18.7349 18.7349C19.1867 18.2831 19.3675 17.9217 19.6386 17.3795C19.8193 16.9277 19.9096 16.3855 20 15.5723C20 14.759 20 14.488 20 12.5C20 10.512 20 10.241 20 9.42771C20 8.61446 19.8193 8.07229 19.6386 7.62048C19.4578 7.16868 19.1867 6.71687 18.7349 6.26506C18.2831 5.81325 17.9217 5.63253 17.3795 5.36145C16.9277 5.18072 16.3855 5.09036 15.5723 5C14.759 5 14.5783 5 12.5 5Z" fill="#02254A"/>
<path d="M12.5 8.61446C10.3313 8.61446 8.61446 10.3313 8.61446 12.5C8.61446 14.6687 10.3313 16.3855 12.5 16.3855C14.6687 16.3855 16.3855 14.6687 16.3855 12.5C16.3855 10.3313 14.6687 8.61446 12.5 8.61446ZM12.5 15.0301C11.1446 15.0301 9.96988 13.9458 9.96988 12.5C9.96988 11.1446 11.0542 9.96988 12.5 9.96988C13.8554 9.96988 15.0301 11.0542 15.0301 12.5C15.0301 13.8554 13.8554 15.0301 12.5 15.0301Z" fill="#02254A"/>
<path d="M16.4759 9.42771C16.975 9.42771 17.3795 9.02315 17.3795 8.5241C17.3795 8.02504 16.975 7.62048 16.4759 7.62048C15.9769 7.62048 15.5723 8.02504 15.5723 8.5241C15.5723 9.02315 15.9769 9.42771 16.4759 9.42771Z" fill="#02254A"/>
</g>
</g>
</svg>
