<svg width="24" height="24" viewBox="0 0 24 24" fill="none" xmlns="http://www.w3.org/2000/svg">
<g id="Icon / sent">
<path id="Vector" d="M4.05 19.5507C3.8 19.6507 3.5625 19.6299 3.3375 19.4882C3.1125 19.3466 3 19.1424 3 18.8757V14.4507C3 14.2674 3.05417 14.1091 3.1625 13.9757C3.27083 13.8424 3.40833 13.7591 3.575 13.7257L10.55 12.0007L3.575 10.2257C3.40833 10.1924 3.27083 10.1091 3.1625 9.97574C3.05417 9.84241 3 9.68407 3 9.50074V5.12574C3 4.85907 3.1125 4.65491 3.3375 4.51324C3.5625 4.37157 3.8 4.35074 4.05 4.45074L20.35 11.3007C20.65 11.4341 20.8 11.6674 20.8 12.0007C20.8 12.3341 20.65 12.5674 20.35 12.7007L4.05 19.5507Z" fill="#02254A"/>
</g>
</svg>
