<svg width="24" height="24" viewBox="0 0 24 24" fill="none" xmlns="http://www.w3.org/2000/svg">
<g id="Icon / social / tweeter">
<path id="twitter" d="M22 5.96154C21.25 6.35385 20.5 6.48462 19.625 6.61538C20.5 6.09231 21.125 5.30769 21.375 4.26154C20.625 4.78462 19.75 5.04615 18.75 5.30769C18 4.52308 16.875 4 15.75 4C13.125 4 11.125 6.61538 11.75 9.23077C8.375 9.1 5.375 7.4 3.25 4.78462C2.125 6.74615 2.75 9.23077 4.5 10.5385C3.875 10.5385 3.25 10.2769 2.625 10.0154C2.625 11.9769 4 13.8077 5.875 14.3308C5.25 14.4615 4.625 14.5923 4 14.4615C4.5 16.1615 6 17.4692 7.875 17.4692C6.375 18.6462 4.125 19.3 2 19.0385C3.875 20.2154 6 21 8.25 21C15.875 21 20.125 14.3308 19.875 8.18462C20.75 7.66154 21.5 6.87692 22 5.96154Z" fill="#02254A"/>
</g>
</svg>
