<svg width="24" height="24" viewBox="0 0 24 24" fill="none" xmlns="http://www.w3.org/2000/svg">
<g id="Icon / social / Youtube">
<path id="youtube" d="M20.55 7.97321C20.325 7.16072 19.7625 6.58036 18.975 6.34821C17.625 6 11.8875 6 11.8875 6C11.8875 6 6.26251 6 4.80001 6.34821C4.01251 6.58036 3.45 7.16072 3.225 7.97321C3 9.48214 3 12.5 3 12.5C3 12.5 3 15.5179 3.3375 17.0268C3.5625 17.8393 4.125 18.4196 4.9125 18.6518C6.2625 19 12 19 12 19C12 19 17.625 19 19.0875 18.6518C19.875 18.4196 20.4375 17.8393 20.6625 17.0268C21 15.5179 21 12.5 21 12.5C21 12.5 21 9.48214 20.55 7.97321ZM10.2 15.2857V9.71429L14.925 12.5L10.2 15.2857Z" fill="#02254A"/>
</g>
</svg>
